<?xml version="1.0" encoding="UTF-8" standalone="no"?>
<!-- Created with Inkscape (http://www.inkscape.org/) -->

<svg
   xmlns:dc="http://purl.org/dc/elements/1.1/"
   xmlns:cc="http://creativecommons.org/ns#"
   xmlns:rdf="http://www.w3.org/1999/02/22-rdf-syntax-ns#"
   xmlns:svg="http://www.w3.org/2000/svg"
   xmlns="http://www.w3.org/2000/svg"
   xmlns:sodipodi="http://sodipodi.sourceforge.net/DTD/sodipodi-0.dtd"
   xmlns:inkscape="http://www.inkscape.org/namespaces/inkscape"
   width="536.37067"
   height="280.80209"
   id="svg2"
   version="1.1"
   inkscape:version="0.48.4 r9939"
   sodipodi:docname="New document 1">
  <defs
     id="defs4" />
  <sodipodi:namedview
     id="base"
     pagecolor="#ffffff"
     bordercolor="#666666"
     borderopacity="1.0"
     inkscape:pageopacity="0.0"
     inkscape:pageshadow="2"
     inkscape:zoom="0.98994949"
     inkscape:cx="403.2528"
     inkscape:cy="77.730271"
     inkscape:document-units="px"
     inkscape:current-layer="layer1"
     showgrid="false"
     inkscape:window-width="1317"
     inkscape:window-height="744"
     inkscape:window-x="49"
     inkscape:window-y="24"
     inkscape:window-maximized="1"
     fit-margin-top="0"
     fit-margin-left="0"
     fit-margin-right="0"
     fit-margin-bottom="0" />
  <metadata
     id="metadata7">
    <rdf:RDF>
      <cc:Work
         rdf:about="">
        <dc:format>image/svg+xml</dc:format>
        <dc:type
           rdf:resource="http://purl.org/dc/dcmitype/StillImage" />
        <dc:title></dc:title>
      </cc:Work>
    </rdf:RDF>
  </metadata>
  <g
     inkscape:label="Layer 1"
     inkscape:groupmode="layer"
     id="layer1"
     transform="translate(-8.0913677,-10.905061)">
    <path
       style="fill:none;stroke:#000000;stroke-width:3;stroke-linecap:butt;stroke-linejoin:miter;stroke-miterlimit:4;stroke-opacity:1;stroke-dasharray:3, 3;stroke-dashoffset:0"
       d="m 246.98229,157.20242 0,52.85715"
       id="path3847-22"
       inkscape:connector-curvature="0" />
    <path
       sodipodi:type="arc"
       style="fill:#38a9e5;fill-opacity:1;stroke:#1e1e1e;stroke-width:1;stroke-miterlimit:4;stroke-opacity:1;stroke-dasharray:none"
       id="path3033"
       sodipodi:cx="135.48671"
       sodipodi:cy="124.91588"
       sodipodi:rx="8.207489"
       sodipodi:ry="7.9549513"
       d="m 143.33431,127.24567 c -1.32755,4.20075 -5.91724,6.56305 -10.25135,5.27635 -4.33411,-1.28671 -6.77141,-5.73518 -5.44385,-9.93593 1.32755,-4.20076 5.91724,-6.56306 10.25135,-5.27635 4.29553,1.27525 6.73502,5.66076 5.47353,9.83987"
       sodipodi:start="0.29723026"
       sodipodi:end="6.5678102"
       transform="translate(-91.451059,-24.243661)"
       sodipodi:open="true" />
    <path
       sodipodi:type="arc"
       style="fill:#38a9e5;fill-opacity:1;stroke:#1e1e1e;stroke-width:1;stroke-miterlimit:4;stroke-opacity:1;stroke-dasharray:none"
       id="path3033-5"
       sodipodi:cx="135.48671"
       sodipodi:cy="124.91588"
       sodipodi:rx="8.207489"
       sodipodi:ry="7.9549513"
       d="m 143.33431,127.24567 c -1.32755,4.20075 -5.91724,6.56305 -10.25135,5.27635 -4.33411,-1.28671 -6.77141,-5.73518 -5.44385,-9.93593 1.32755,-4.20076 5.91724,-6.56306 10.25135,-5.27635 4.29553,1.27525 6.73502,5.66076 5.47353,9.83987"
       sodipodi:start="0.29723026"
       sodipodi:end="6.5678102"
       transform="translate(11.813911,-25.664654)"
       sodipodi:open="true" />
    <path
       sodipodi:type="arc"
       style="fill:#000000;fill-opacity:1;stroke:#1e1e1e;stroke-width:1;stroke-miterlimit:4;stroke-opacity:1;stroke-dasharray:none"
       id="path3033-8"
       sodipodi:cx="135.48671"
       sodipodi:cy="124.91588"
       sodipodi:rx="8.207489"
       sodipodi:ry="7.9549513"
       d="m 143.33431,127.24567 c -1.32755,4.20075 -5.91724,6.56305 -10.25135,5.27635 -4.33411,-1.28671 -6.77141,-5.73518 -5.44385,-9.93593 1.32755,-4.20076 5.91724,-6.56306 10.25135,-5.27635 4.29553,1.27525 6.73502,5.66076 5.47353,9.83987"
       sodipodi:start="0.29723026"
       sodipodi:end="6.5678102"
       transform="translate(-91.451059,44.335346)"
       sodipodi:open="true" />
    <path
       style="fill:none;stroke:#000000;stroke-width:3;stroke-linecap:butt;stroke-linejoin:miter;stroke-miterlimit:4;stroke-opacity:1;stroke-dasharray:3, 3;stroke-dashoffset:0"
       d="m 44.035581,108.53694 0,52.85715"
       id="path3847"
       inkscape:connector-curvature="0" />
    <path
       sodipodi:type="arc"
       style="fill:#38a9e5;fill-opacity:1;stroke:#1e1e1e;stroke-width:1;stroke-miterlimit:4;stroke-opacity:1;stroke-dasharray:none"
       id="path3033-5-4"
       sodipodi:cx="135.48671"
       sodipodi:cy="124.91588"
       sodipodi:rx="8.207489"
       sodipodi:ry="7.9549513"
       d="m 143.33431,127.24567 c -1.32755,4.20075 -5.91724,6.56305 -10.25135,5.27635 -4.33411,-1.28671 -6.77141,-5.73518 -5.44385,-9.93593 1.32755,-4.20076 5.91724,-6.56306 10.25135,-5.27635 4.29553,1.27525 6.73502,5.66076 5.47353,9.83987"
       sodipodi:start="0.29723026"
       sodipodi:end="6.5678102"
       transform="translate(78.599631,-73.87894)"
       sodipodi:open="true" />
    <path
       sodipodi:type="arc"
       style="fill:#38a9e5;fill-opacity:1;stroke:#1e1e1e;stroke-width:1;stroke-miterlimit:4;stroke-opacity:1;stroke-dasharray:none"
       id="path3033-5-48"
       sodipodi:cx="135.48671"
       sodipodi:cy="124.91588"
       sodipodi:rx="8.207489"
       sodipodi:ry="7.9549513"
       d="m 143.33431,127.24567 c -1.32755,4.20075 -5.91724,6.56305 -10.25135,5.27635 -4.33411,-1.28671 -6.77141,-5.73518 -5.44385,-9.93593 1.32755,-4.20076 5.91724,-6.56306 10.25135,-5.27635 4.29553,1.27525 6.73502,5.66076 5.47353,9.83987"
       sodipodi:start="0.29723026"
       sodipodi:end="6.5678102"
       transform="translate(205.0282,-29.950368)"
       sodipodi:open="true" />
    <path
       sodipodi:type="arc"
       style="fill:#38a9e5;fill-opacity:1;stroke:#1e1e1e;stroke-width:1;stroke-miterlimit:4;stroke-opacity:1;stroke-dasharray:none"
       id="path3033-5-9"
       sodipodi:cx="135.48671"
       sodipodi:cy="124.91588"
       sodipodi:rx="8.207489"
       sodipodi:ry="7.9549513"
       d="m 143.33431,127.24567 c -1.32755,4.20075 -5.91724,6.56305 -10.25135,5.27635 -4.33411,-1.28671 -6.77141,-5.73518 -5.44385,-9.93593 1.32755,-4.20076 5.91724,-6.56306 10.25135,-5.27635 4.29553,1.27525 6.73502,5.66076 5.47353,9.83987"
       sodipodi:start="0.29723026"
       sodipodi:end="6.5678102"
       transform="translate(111.09963,27.192489)"
       sodipodi:open="true" />
    <path
       sodipodi:type="arc"
       style="fill:#241f1c;fill-opacity:1;stroke:#1e1e1e;stroke-width:1;stroke-miterlimit:4;stroke-opacity:1;stroke-dasharray:none"
       id="path3033-5-96"
       sodipodi:cx="135.48671"
       sodipodi:cy="124.91588"
       sodipodi:rx="8.207489"
       sodipodi:ry="7.9549513"
       d="m 143.33431,127.24567 c -1.32755,4.20075 -5.91724,6.56305 -10.25135,5.27635 -4.33411,-1.28671 -6.77141,-5.73518 -5.44385,-9.93593 1.32755,-4.20076 5.91724,-6.56306 10.25135,-5.27635 4.29553,1.27525 6.73502,5.66076 5.47353,9.83987"
       sodipodi:start="0.29723026"
       sodipodi:end="6.5678102"
       transform="matrix(0.32337897,0,0,0.32434653,202.59417,111.59234)"
       sodipodi:open="true" />
    <path
       sodipodi:type="arc"
       style="fill:#38a9e5;fill-opacity:1;stroke:#1e1e1e;stroke-width:1;stroke-miterlimit:4;stroke-opacity:1;stroke-dasharray:none"
       id="path3033-5-8"
       sodipodi:cx="135.48671"
       sodipodi:cy="124.91588"
       sodipodi:rx="8.207489"
       sodipodi:ry="7.9549513"
       d="m 143.33431,127.24567 c -1.32755,4.20075 -5.91724,6.56305 -10.25135,5.27635 -4.33411,-1.28671 -6.77141,-5.73518 -5.44385,-9.93593 1.32755,-4.20076 5.91724,-6.56306 10.25135,-5.27635 4.29553,1.27525 6.73502,5.66076 5.47353,9.83987"
       sodipodi:start="0.29723026"
       sodipodi:end="6.5678102"
       transform="translate(318.57693,26.390233)"
       sodipodi:open="true" />
    <path
       sodipodi:type="arc"
       style="fill:#000000;fill-opacity:1;stroke:#1e1e1e;stroke-width:1;stroke-miterlimit:4;stroke-opacity:1;stroke-dasharray:none"
       id="path3033-8-4"
       sodipodi:cx="135.48671"
       sodipodi:cy="124.91588"
       sodipodi:rx="8.207489"
       sodipodi:ry="7.9549513"
       d="m 143.33431,127.24567 c -1.32755,4.20075 -5.91724,6.56305 -10.25135,5.27635 -4.33411,-1.28671 -6.77141,-5.73518 -5.44385,-9.93593 1.32755,-4.20076 5.91724,-6.56306 10.25135,-5.27635 4.29553,1.27525 6.73502,5.66076 5.47353,9.83987"
       sodipodi:start="0.29723026"
       sodipodi:end="6.5678102"
       transform="translate(12.500701,44.067903)"
       sodipodi:open="true" />
    <path
       sodipodi:type="arc"
       style="fill:#000000;fill-opacity:1;stroke:#1e1e1e;stroke-width:1;stroke-miterlimit:4;stroke-opacity:1;stroke-dasharray:none"
       id="path3033-8-1"
       sodipodi:cx="135.48671"
       sodipodi:cy="124.91588"
       sodipodi:rx="8.207489"
       sodipodi:ry="7.9549513"
       d="m 143.33431,127.24567 c -1.32755,4.20075 -5.91724,6.56305 -10.25135,5.27635 -4.33411,-1.28671 -6.77141,-5.73518 -5.44385,-9.93593 1.32755,-4.20076 5.91724,-6.56306 10.25135,-5.27635 4.29553,1.27525 6.73502,5.66076 5.47353,9.83987"
       sodipodi:start="0.29723026"
       sodipodi:end="6.5678102"
       transform="translate(68.059091,17.29886)"
       sodipodi:open="true" />
    <path
       sodipodi:type="arc"
       style="fill:#000000;fill-opacity:1;stroke:#1e1e1e;stroke-width:1;stroke-miterlimit:4;stroke-opacity:1;stroke-dasharray:none"
       id="path3033-8-3"
       sodipodi:cx="135.48671"
       sodipodi:cy="124.91588"
       sodipodi:rx="8.207489"
       sodipodi:ry="7.9549513"
       d="m 143.33431,127.24567 c -1.32755,4.20075 -5.91724,6.56305 -10.25135,5.27635 -4.33411,-1.28671 -6.77141,-5.73518 -5.44385,-9.93593 1.32755,-4.20076 5.91724,-6.56306 10.25135,-5.27635 4.29553,1.27525 6.73502,5.66076 5.47353,9.83987"
       sodipodi:start="0.29723026"
       sodipodi:end="6.5678102"
       transform="translate(-43.057685,16.793784)"
       sodipodi:open="true" />
    <path
       sodipodi:type="arc"
       style="fill:#000000;fill-opacity:1;stroke:#1e1e1e;stroke-width:1;stroke-miterlimit:4;stroke-opacity:1;stroke-dasharray:none"
       id="path3033-8-8"
       sodipodi:cx="135.48671"
       sodipodi:cy="124.91588"
       sodipodi:rx="8.207489"
       sodipodi:ry="7.9549513"
       d="m 143.33431,127.24567 c -1.32755,4.20075 -5.91724,6.56305 -10.25135,5.27635 -4.33411,-1.28671 -6.77141,-5.73518 -5.44385,-9.93593 1.32755,-4.20076 5.91724,-6.56306 10.25135,-5.27635 4.29553,1.27525 6.73502,5.66076 5.47353,9.83987"
       sodipodi:start="0.29723026"
       sodipodi:end="6.5678102"
       transform="translate(112.00073,94.070456)"
       sodipodi:open="true" />
    <path
       sodipodi:type="arc"
       style="fill:#000000;fill-opacity:1;stroke:#1e1e1e;stroke-width:1;stroke-miterlimit:4;stroke-opacity:1;stroke-dasharray:none"
       id="path3033-8-2"
       sodipodi:cx="135.48671"
       sodipodi:cy="124.91588"
       sodipodi:rx="8.207489"
       sodipodi:ry="7.9549513"
       d="m 143.33431,127.24567 c -1.32755,4.20075 -5.91724,6.56305 -10.25135,5.27635 -4.33411,-1.28671 -6.77141,-5.73518 -5.44385,-9.93593 1.32755,-4.20076 5.91724,-6.56306 10.25135,-5.27635 4.29553,1.27525 6.73502,5.66076 5.47353,9.83987"
       sodipodi:start="0.29723026"
       sodipodi:end="6.5678102"
       transform="translate(264.53377,69.321716)"
       sodipodi:open="true" />
    <path
       sodipodi:type="arc"
       style="fill:#000000;fill-opacity:1;stroke:#1e1e1e;stroke-width:1;stroke-miterlimit:4;stroke-opacity:1;stroke-dasharray:none"
       id="path3033-8-9"
       sodipodi:cx="135.48671"
       sodipodi:cy="124.91588"
       sodipodi:rx="8.207489"
       sodipodi:ry="7.9549513"
       d="m 143.33431,127.24567 c -1.32755,4.20075 -5.91724,6.56305 -10.25135,5.27635 -4.33411,-1.28671 -6.77141,-5.73518 -5.44385,-9.93593 1.32755,-4.20076 5.91724,-6.56306 10.25135,-5.27635 4.29553,1.27525 6.73502,5.66076 5.47353,9.83987"
       sodipodi:start="0.29723026"
       sodipodi:end="6.5678102"
       transform="translate(272.61498,-20.076784)"
       sodipodi:open="true" />
    <path
       sodipodi:type="arc"
       style="fill:#000000;fill-opacity:1;stroke:#1e1e1e;stroke-width:1;stroke-miterlimit:4;stroke-opacity:1;stroke-dasharray:none"
       id="path3033-8-0"
       sodipodi:cx="135.48671"
       sodipodi:cy="124.91588"
       sodipodi:rx="8.207489"
       sodipodi:ry="7.9549513"
       d="m 143.33431,127.24567 c -1.32755,4.20075 -5.91724,6.56305 -10.25135,5.27635 -4.33411,-1.28671 -6.77141,-5.73518 -5.44385,-9.93593 1.32755,-4.20076 5.91724,-6.56306 10.25135,-5.27635 4.29553,1.27525 6.73502,5.66076 5.47353,9.83987"
       sodipodi:start="0.29723026"
       sodipodi:end="6.5678102"
       transform="translate(252.91701,-77.655479)"
       sodipodi:open="true" />
    <path
       sodipodi:type="arc"
       style="fill:#000000;fill-opacity:1;stroke:#1e1e1e;stroke-width:1;stroke-miterlimit:4;stroke-opacity:1;stroke-dasharray:none"
       id="path3033-8-99"
       sodipodi:cx="135.48671"
       sodipodi:cy="124.91588"
       sodipodi:rx="8.207489"
       sodipodi:ry="7.9549513"
       d="m 143.33431,127.24567 c -1.32755,4.20075 -5.91724,6.56305 -10.25135,5.27635 -4.33411,-1.28671 -6.77141,-5.73518 -5.44385,-9.93593 1.32755,-4.20076 5.91724,-6.56306 10.25135,-5.27635 4.29553,1.27525 6.73502,5.66076 5.47353,9.83987"
       sodipodi:start="0.29723026"
       sodipodi:end="6.5678102"
       transform="translate(79.675851,-44.825521)"
       sodipodi:open="true" />
    <path
       sodipodi:type="arc"
       style="fill:#000000;fill-opacity:1;stroke:#1e1e1e;stroke-width:1;stroke-miterlimit:4;stroke-opacity:1;stroke-dasharray:none"
       id="path3033-8-20"
       sodipodi:cx="135.48671"
       sodipodi:cy="124.91588"
       sodipodi:rx="8.207489"
       sodipodi:ry="7.9549513"
       d="m 143.33431,127.24567 c -1.32755,4.20075 -5.91724,6.56305 -10.25135,5.27635 -4.33411,-1.28671 -6.77141,-5.73518 -5.44385,-9.93593 1.32755,-4.20076 5.91724,-6.56306 10.25135,-5.27635 4.29553,1.27525 6.73502,5.66076 5.47353,9.83987"
       sodipodi:start="0.29723026"
       sodipodi:end="6.5678102"
       transform="translate(319.58709,96.090756)"
       sodipodi:open="true" />
    <path
       sodipodi:type="arc"
       style="fill:#000000;fill-opacity:1;stroke:#1e1e1e;stroke-width:1;stroke-miterlimit:4;stroke-opacity:1;stroke-dasharray:none"
       id="path3033-8-94"
       sodipodi:cx="135.48671"
       sodipodi:cy="124.91588"
       sodipodi:rx="8.207489"
       sodipodi:ry="7.9549513"
       d="m 143.33431,127.24567 c -1.32755,4.20075 -5.91724,6.56305 -10.25135,5.27635 -4.33411,-1.28671 -6.77141,-5.73518 -5.44385,-9.93593 1.32755,-4.20076 5.91724,-6.56306 10.25135,-5.27635 4.29553,1.27525 6.73502,5.66076 5.47353,9.83987"
       sodipodi:start="0.29723026"
       sodipodi:end="6.5678102"
       transform="translate(373.63023,69.826797)"
       sodipodi:open="true" />
    <path
       style="fill:none;stroke:#000000;stroke-width:3;stroke-linecap:butt;stroke-linejoin:miter;stroke-miterlimit:4;stroke-opacity:1;stroke-dasharray:3, 3;stroke-dashoffset:0"
       d="m 147.48227,106.6948 0,52.85715"
       id="path3847-2"
       inkscape:connector-curvature="0" />
    <path
       style="fill:none;stroke:#000000;stroke-width:3;stroke-linecap:butt;stroke-linejoin:miter;stroke-miterlimit:4;stroke-opacity:1;stroke-dasharray:3, 3;stroke-dashoffset:0"
       d="m 454.56864,159.7278 0,52.85715"
       id="path3847-3"
       inkscape:connector-curvature="0" />
    <path
       style="fill:none;stroke:#000000;stroke-width:3;stroke-linecap:butt;stroke-linejoin:miter;stroke-miterlimit:4;stroke-opacity:1;stroke-dasharray:3, 3;stroke-dashoffset:0"
       d="M 141.13601,104.69115 98.278861,136.65544"
       id="path3847-9"
       inkscape:connector-curvature="0"
       sodipodi:nodetypes="cc" />
    <path
       style="fill:none;stroke:#000000;stroke-width:3;stroke-linecap:butt;stroke-linejoin:miter;stroke-miterlimit:4;stroke-opacity:1;stroke-dasharray:3, 3;stroke-dashoffset:0"
       d="m 155.1577,105.41194 42.85715,31.96429"
       id="path3847-9-8"
       inkscape:connector-curvature="0"
       sodipodi:nodetypes="cc" />
    <path
       style="fill:none;stroke:#000000;stroke-width:3;stroke-linecap:butt;stroke-linejoin:miter;stroke-miterlimit:4;stroke-opacity:1;stroke-dasharray:3, 3;stroke-dashoffset:0"
       d="m 461.42434,158.0524 42.85715,31.96429"
       id="path3847-9-8-1"
       inkscape:connector-curvature="0"
       sodipodi:nodetypes="cc" />
    <path
       style="fill:none;stroke:#000000;stroke-width:3;stroke-linecap:butt;stroke-linejoin:miter;stroke-miterlimit:4;stroke-opacity:1;stroke-dasharray:3, 3;stroke-dashoffset:0"
       d="m 447.20787,157.04225 -42.85715,31.96429"
       id="path3847-9-87"
       inkscape:connector-curvature="0"
       sodipodi:nodetypes="cc" />
    <path
       style="fill:none;stroke:#000000;stroke-width:3;stroke-linecap:butt;stroke-linejoin:miter;stroke-miterlimit:4;stroke-opacity:1;stroke-dasharray:3, 3;stroke-dashoffset:0"
       d="m 256.86845,155.52703 133.01326,36.25744"
       id="path3847-9-8-8"
       inkscape:connector-curvature="0"
       sodipodi:nodetypes="cc" />
    <path
       style="fill:none;stroke:#000000;stroke-width:3;stroke-linecap:butt;stroke-linejoin:miter;stroke-miterlimit:4;stroke-opacity:1;stroke-dasharray:3, 3;stroke-dashoffset:0"
       d="M 254.09053,143.91027 331.54541,99.608036"
       id="path3847-9-8-6"
       inkscape:connector-curvature="0"
       sodipodi:nodetypes="cc" />
    <path
       style="fill:none;stroke:#000000;stroke-width:3;stroke-linecap:butt;stroke-linejoin:miter;stroke-miterlimit:4;stroke-opacity:1;stroke-dasharray:3, 3;stroke-dashoffset:0"
       d="m 350.87198,96.126216 47.14287,7.321444"
       id="path3847-9-8-19"
       inkscape:connector-curvature="0"
       sodipodi:nodetypes="cc" />
    <path
       style="fill:none;stroke:#000000;stroke-width:3;stroke-linecap:butt;stroke-linejoin:miter;stroke-miterlimit:4;stroke-opacity:1;stroke-dasharray:3, 3;stroke-dashoffset:0"
       d="M 388.01484,47.197651 345.87199,88.447656"
       id="path3847-9-8-5"
       inkscape:connector-curvature="0"
       sodipodi:nodetypes="cc" />
    <text
       xml:space="preserve"
       style="font-size:12px;font-style:normal;font-weight:normal;line-height:125%;letter-spacing:0px;word-spacing:0px;fill:#000000;fill-opacity:1;stroke:none;font-family:Sans"
       x="233.37198"
       y="57.822647"
       id="text4342"
       sodipodi:linespacing="125%"><tspan
         sodipodi:role="line"
         id="tspan4344"
         x="233.37198"
         y="57.822647"
         style="font-size:16px;font-weight:bold;-inkscape-font-specification:Sans Bold">Mestre</tspan></text>
    <text
       xml:space="preserve"
       style="font-size:12px;font-style:normal;font-weight:normal;line-height:125%;letter-spacing:0px;word-spacing:0px;fill:#000000;fill-opacity:1;stroke:none;font-family:Sans"
       x="233.46796"
       y="84.827118"
       id="text4342-8"
       sodipodi:linespacing="125%"><tspan
         sodipodi:role="line"
         id="tspan4344-2"
         x="233.46796"
         y="84.827118"
         style="font-size:16px;font-weight:bold;-inkscape-font-specification:Sans Bold">Escravo</tspan></text>
    <path
       style="fill:#000000;fill-opacity:1;stroke:#505050;stroke-width:2;stroke-linecap:butt;stroke-linejoin:miter;stroke-miterlimit:4;stroke-opacity:1;stroke-dasharray:none"
       d="m 71.943411,94.251226 0,167.857144"
       id="path4367"
       inkscape:connector-curvature="0" />
    <path
       style="fill:#000000;fill-opacity:1;stroke:#505050;stroke-width:2;stroke-linecap:butt;stroke-linejoin:miter;stroke-miterlimit:4;stroke-opacity:1;stroke-dasharray:none"
       d="m 224.75894,93.136436 0,167.857144"
       id="path4367-6"
       inkscape:connector-curvature="0" />
    <text
       xml:space="preserve"
       style="font-size:12px;font-style:normal;font-weight:normal;line-height:125%;letter-spacing:0px;word-spacing:0px;fill:#000000;fill-opacity:1;stroke:none;font-family:Sans"
       x="44.5182"
       y="260.68427"
       id="text4342-7"
       sodipodi:linespacing="125%"><tspan
         sodipodi:role="line"
         id="tspan4344-5"
         x="44.5182"
         y="260.68427"
         style="font-size:16px;font-weight:bold;-inkscape-font-specification:Sans Bold">a</tspan></text>
    <text
       xml:space="preserve"
       style="font-size:12px;font-style:normal;font-weight:normal;line-height:125%;letter-spacing:0px;word-spacing:0px;fill:#000000;fill-opacity:1;stroke:none;font-family:Sans"
       x="142.54442"
       y="259.3327"
       id="text4342-7-7"
       sodipodi:linespacing="125%"><tspan
         sodipodi:role="line"
         id="tspan4344-5-5"
         x="142.54442"
         y="259.3327"
         style="font-size:16px;font-weight:bold;-inkscape-font-specification:Sans Bold">b</tspan></text>
    <text
       xml:space="preserve"
       style="font-size:12px;font-style:normal;font-weight:normal;line-height:125%;letter-spacing:0px;word-spacing:0px;fill:#000000;fill-opacity:1;stroke:none;font-family:Sans"
       x="351.11588"
       y="259.3327"
       id="text4342-7-8"
       sodipodi:linespacing="125%"><tspan
         sodipodi:role="line"
         id="tspan4344-5-2"
         x="351.11588"
         y="259.3327"
         style="font-size:16px;font-weight:bold;-inkscape-font-specification:Sans Bold">c</tspan></text>
    <rect
       style="fill:none;stroke:#000000;stroke-width:2;stroke-miterlimit:4;stroke-opacity:1;stroke-dasharray:none;stroke-dashoffset:0"
       id="rect4438"
       width="534.37067"
       height="278.80209"
       x="9.0913677"
       y="11.905061"
       ry="5.0945473" />
  </g>
</svg>
