<?xml version="1.0" encoding="UTF-8"?>
<!DOCTYPE svg PUBLIC "-//W3C//DTD SVG 1.1//EN" "http://www.w3.org/Graphics/SVG/1.1/DTD/svg11.dtd">
<svg xmlns="http://www.w3.org/2000/svg" xmlns:xlink="http://www.w3.org/1999/xlink" width="588px" height="407px" version="1.1" style="background-color: rgb(255, 255, 255);"><defs><linearGradient x1="0%" y1="0%" x2="0%" y2="100%" id="mx-gradient-f5f5f5-1-e6e6e6-1-s-0"><stop offset="0%" style="stop-color:#F5F5F5"/><stop offset="100%" style="stop-color:#E6E6E6"/></linearGradient><linearGradient x1="0%" y1="0%" x2="0%" y2="100%" id="mx-gradient-dae8fc-1-99ccff-1-s-0"><stop offset="0%" style="stop-color:#DAE8FC"/><stop offset="100%" style="stop-color:#99CCFF"/></linearGradient><linearGradient x1="0%" y1="0%" x2="0%" y2="100%" id="mx-gradient-e1d5e7-1-d0c5d6-1-s-0"><stop offset="0%" style="stop-color:#E1D5E7"/><stop offset="100%" style="stop-color:#D0C5D6"/></linearGradient><linearGradient x1="0%" y1="0%" x2="0%" y2="100%" id="mx-gradient-fff2cc-1-ffd966-1-s-0"><stop offset="0%" style="stop-color:#FFF2CC"/><stop offset="100%" style="stop-color:#FFD966"/></linearGradient><linearGradient x1="0%" y1="0%" x2="0%" y2="100%" id="mx-gradient-add9b0-1-c1e8be-1-s-0"><stop offset="0%" style="stop-color:#ADD9B0"/><stop offset="100%" style="stop-color:#C1E8BE"/></linearGradient><linearGradient x1="0%" y1="0%" x2="0%" y2="100%" id="mx-gradient-dae8fc-1-dae8fc-1-s-0"><stop offset="0%" style="stop-color:#DAE8FC"/><stop offset="100%" style="stop-color:#DAE8FC"/></linearGradient></defs><g transform="translate(0.5,0.5)"><rect x="43" y="325" width="380" height="80" rx="12" ry="12" fill="url(#mx-gradient-f5f5f5-1-e6e6e6-1-s-0)" stroke="#666666" stroke-dasharray="3 3" pointer-events="none"/><rect x="-85" y="191" width="203" height="30" fill="url(#mx-gradient-dae8fc-1-99ccff-1-s-0)" stroke="#6c8ebf" transform="rotate(-90,16.5,206)" pointer-events="none"/><g fill="#003366" font-family="Helvetica" font-weight="bold" text-anchor="middle" font-size="12px" transform="rotate(-90,16.5,206)"><text x="16.5" y="210">Firmware</text></g><rect x="63" y="339" width="70" height="54" rx="8.1" ry="8.1" fill="url(#mx-gradient-e1d5e7-1-d0c5d6-1-s-0)" stroke="#9673a6" pointer-events="none"/><g fill="#000000" font-family="Helvetica" text-anchor="middle" font-size="12px"><text x="98" y="370">AVR</text></g><rect x="141" y="339" width="72" height="54" rx="8.1" ry="8.1" fill="url(#mx-gradient-e1d5e7-1-d0c5d6-1-s-0)" stroke="#9673a6" pointer-events="none"/><g fill="#000000" font-family="Helvetica" text-anchor="middle" font-size="12px"><text x="177" y="370">ARM</text></g><rect x="225" y="339" width="88" height="54" rx="8.1" ry="8.1" fill="url(#mx-gradient-e1d5e7-1-d0c5d6-1-s-0)" stroke="#9673a6" pointer-events="none"/><g fill="#000000" font-family="Helvetica" text-anchor="middle" font-size="12px"><text x="269" y="370">ESP8266</text></g><rect x="322" y="339" width="84" height="54" rx="8.1" ry="8.1" fill="url(#mx-gradient-e1d5e7-1-d0c5d6-1-s-0)" stroke="#9673a6" pointer-events="none"/><g fill="#000000" font-family="Helvetica" text-anchor="middle" font-size="12px"><text x="364" y="370">Etc..</text></g><rect x="43" y="252" width="543" height="60" rx="9" ry="9" fill="url(#mx-gradient-f5f5f5-1-e6e6e6-1-s-0)" stroke="#666666" stroke-dasharray="3 3" pointer-events="none"/><rect x="-23" y="350" width="78" height="30" fill="url(#mx-gradient-dae8fc-1-99ccff-1-s-0)" stroke="#6c8ebf" transform="rotate(-90,16,365)" pointer-events="none"/><g fill="#003366" font-family="Helvetica" font-weight="bold" text-anchor="middle" font-size="12px" transform="rotate(-90,16,365)"><text x="16" y="369">Hardware</text></g><rect x="58" y="263" width="275" height="38" rx="5.7" ry="5.7" fill="url(#mx-gradient-fff2cc-1-ffd966-1-s-0)" stroke="#d6b656" pointer-events="none"/><g fill="#000000" font-family="Helvetica" text-anchor="middle" font-size="12px"><text x="195.5" y="286">Arduino Framework</text></g><rect x="473" y="325" width="113" height="80" rx="12" ry="12" fill="url(#mx-gradient-f5f5f5-1-e6e6e6-1-s-0)" stroke="#666666" stroke-dasharray="3 3" pointer-events="none"/><rect x="343" y="262" width="230" height="38" rx="5.7" ry="5.7" fill="url(#mx-gradient-fff2cc-1-ffd966-1-s-0)" stroke="#d6b656" pointer-events="none"/><g fill="#000000" font-family="Helvetica" text-anchor="middle" font-size="12px"><text x="458" y="285">User Libs</text></g><rect x="488" y="338" width="84" height="54" rx="8.1" ry="8.1" fill="url(#mx-gradient-e1d5e7-1-d0c5d6-1-s-0)" stroke="#9673a6" pointer-events="none"/><g fill="#000000" font-family="Helvetica" text-anchor="middle" font-size="12px"><text x="530" y="369">Devices</text></g><path d="M 481.63 364.95 L 412.65 365.91" fill="none" stroke="#000000" stroke-miterlimit="10" pointer-events="none"/><path d="M 486.88 364.87 L 479.93 368.47 L 481.63 364.95 L 479.83 361.47 Z" fill="#000000" stroke="#000000" stroke-miterlimit="10" pointer-events="none"/><path d="M 407.4 365.98 L 414.35 362.39 L 412.65 365.91 L 414.45 369.39 Z" fill="#000000" stroke="#000000" stroke-miterlimit="10" pointer-events="none"/><g fill="#000000" font-family="Helvetica" text-anchor="middle" font-size="12px"><rect fill="#ffffff" stroke="none" x="430" y="338" width="35" height="57" stroke-width="0"/><text x="447.4" y="348.74">GPIO</text><text x="447.4" y="362.74">SPI</text><text x="447.4" y="376.74">UART</text><text x="447.4" y="390.74">Etc...</text></g><rect x="39" y="102" width="547" height="136" rx="20.4" ry="20.4" fill="url(#mx-gradient-f5f5f5-1-e6e6e6-1-s-0)" stroke="#666666" stroke-dasharray="3 3" pointer-events="none"/><rect x="100" y="149" width="145" height="38" rx="5.7" ry="5.7" fill="url(#mx-gradient-e1d5e7-1-d0c5d6-1-s-0)" stroke="#9673a6" pointer-events="none"/><g fill="#000000" font-family="Helvetica" text-anchor="middle" font-size="12px"><text x="172.5" y="165">DeviceManager</text><text x="172.5" y="179">(ODev)</text></g><rect x="333" y="121" width="28" height="101" rx="4.2" ry="4.2" fill="url(#mx-gradient-fff2cc-1-ffd966-1-s-0)" stroke="#d6b656" pointer-events="none"/><g fill="#000000" font-family="Helvetica" text-anchor="middle" font-size="12px" transform="rotate(-90,347,171.5)"><text x="347" y="175.5">Protocol</text></g><rect x="259" y="119" width="63" height="101" rx="9.45" ry="9.45" fill="url(#mx-gradient-fff2cc-1-ffd966-1-s-0)" stroke="#d6b656" pointer-events="none"/><g fill="#000000" font-family="Helvetica" text-anchor="middle" font-size="12px" transform="rotate(-90,290.5,169.5)"><text x="290.5" y="173.5">Commands</text></g><path d="M 244.63 301 L 307.77 325.42" fill="none" stroke="#000000" stroke-miterlimit="10" stroke-dasharray="3 3" pointer-events="none"/><path d="M 312.67 327.31 L 304.88 328.05 L 307.77 325.42 L 307.41 321.52 Z" fill="#000000" stroke="#000000" stroke-miterlimit="10" pointer-events="none"/><path d="M 176 238 L 214 250.07" fill="none" stroke="#000000" stroke-miterlimit="10" stroke-dasharray="3 3" pointer-events="none"/><path d="M 219 251.66 L 211.27 252.88 L 214 250.07 L 213.39 246.21 Z" fill="#000000" stroke="#000000" stroke-miterlimit="10" pointer-events="none"/><path d="M 233.14 324.86 L 233.15 324.09" fill="none" stroke="#000000" stroke-miterlimit="10" stroke-dasharray="3 3" pointer-events="none"/><path d="M 233.14 324.84 L 232.65 323.84 L 233.15 324.09 L 233.65 323.84 Z" fill="#000000" stroke="#000000" stroke-miterlimit="10" pointer-events="none"/><rect x="376" y="119.5" width="190" height="105" rx="15.75" ry="15.75" fill="url(#mx-gradient-add9b0-1-c1e8be-1-s-0)" stroke="#82b366" pointer-events="none"/><g fill="#000000" font-family="Helvetica" text-anchor="middle" font-size="12px"><text x="471" y="138.07">Connections Framework</text></g><rect x="385" y="148.5" width="171" height="29" rx="4.35" ry="4.35" fill="#d7ebd6" stroke="#82b366" pointer-events="none"/><g fill="#000000" font-family="Helvetica" text-anchor="middle" font-size="12px"><text x="470.5" y="167">Usb, Bluetooth, Ethernet, WiFi</text></g><rect x="386" y="185.5" width="170" height="29" rx="4.35" ry="4.35" fill="#d7ebd6" stroke="#82b366" pointer-events="none"/><g fill="#000000" font-family="Helvetica" text-anchor="middle" font-size="12px"><text x="471" y="204">MQTT, CoAP*</text></g><path d="M 376 178.65 Q 376 212.29 356 212.29 Q 336 212.29 290.57 212.29 Q 245.14 212.29 245.14 174.65" fill="none" stroke="#000000" stroke-miterlimit="10" stroke-dasharray="3 3" pointer-events="none"/><path d="M 376 173.4 L 379.5 180.4 L 376 178.65 L 372.5 180.4 Z" fill="#000000" stroke="#000000" stroke-miterlimit="10" pointer-events="none"/><path d="M 245.14 169.4 L 248.64 176.4 L 245.14 174.65 L 241.64 176.4 Z" fill="#000000" stroke="#000000" stroke-miterlimit="10" pointer-events="none"/><rect x="100" y="117" width="145" height="26" rx="3.9" ry="3.9" fill="url(#mx-gradient-dae8fc-1-dae8fc-1-s-0)" stroke="#6c8ebf" pointer-events="none"/><g fill="#000000" font-family="Helvetica" text-anchor="middle" font-size="12px"><text x="172.5" y="134">User Code (Sketch)</text></g><rect x="3" y="21" width="583" height="70" rx="10.5" ry="10.5" fill="url(#mx-gradient-f5f5f5-1-e6e6e6-1-s-0)" stroke="#666666" stroke-dasharray="3 3" pointer-events="none"/><rect x="47" y="1.04" width="240" height="30" fill="url(#mx-gradient-dae8fc-1-99ccff-1-s-0)" stroke="#6c8ebf" pointer-events="none"/><g fill="#003366" font-family="Helvetica" font-weight="bold" text-anchor="middle" font-size="12px"><text x="167" y="20.04">Client Applications</text></g><rect x="18" y="41" width="191" height="40" rx="6" ry="6" fill="#dae8fc" stroke="#6c8ebf" pointer-events="none"/><g fill="#000000" font-family="Helvetica" text-anchor="middle" font-size="12px"><text x="113.5" y="65">Custom User App</text></g><rect x="219" y="41" width="130" height="40" rx="6" ry="6" fill="url(#mx-gradient-dae8fc-1-dae8fc-1-s-0)" stroke="#6c8ebf" pointer-events="none"/><g fill="#000000" font-family="Helvetica" text-anchor="middle" font-size="12px"><text x="284" y="65">Mobile App</text></g><rect x="359" y="41" width="207" height="40" rx="6" ry="6" fill="url(#mx-gradient-dae8fc-1-dae8fc-1-s-0)" stroke="#6c8ebf" pointer-events="none"/><g fill="#000000" font-family="Helvetica" font-weight="bold" text-anchor="middle" font-size="12px"><text x="462.5" y="65">Middleware</text></g><path d="M 451.07 122.56 L 450.94 76.29" fill="none" stroke="#000000" stroke-miterlimit="10" pointer-events="none"/><path d="M 451.08 127.81 L 447.56 120.82 L 451.07 122.56 L 454.56 120.8 Z" fill="#000000" stroke="#000000" stroke-miterlimit="10" pointer-events="none"/><path d="M 450.93 71.04 L 454.45 78.03 L 450.94 76.29 L 447.45 78.05 Z" fill="#000000" stroke="#000000" stroke-miterlimit="10" pointer-events="none"/><path d="M 470.07 122.56 L 469.94 76.29" fill="none" stroke="#000000" stroke-miterlimit="10" pointer-events="none"/><path d="M 470.08 127.81 L 466.56 120.82 L 470.07 122.56 L 473.56 120.8 Z" fill="#000000" stroke="#000000" stroke-miterlimit="10" pointer-events="none"/><path d="M 469.93 71.04 L 473.45 78.03 L 469.94 76.29 L 466.45 78.05 Z" fill="#000000" stroke="#000000" stroke-miterlimit="10" pointer-events="none"/><rect x="100" y="193" width="145" height="31" rx="4.65" ry="4.65" fill="url(#mx-gradient-e1d5e7-1-d0c5d6-1-s-0)" stroke="#9673a6" pointer-events="none"/><g fill="#000000" font-family="Helvetica" text-anchor="middle" font-size="12px"><text x="172.5" y="212.5">User Functions</text></g><path d="M 117.6 156.64 L 116.4 137.5" fill="none" stroke="#76a0e8" stroke-miterlimit="10" pointer-events="none"/><path d="M 117.93 161.88 L 114 155.12 L 117.6 156.64 L 120.98 154.68 Z" fill="#76a0e8" stroke="#76a0e8" stroke-miterlimit="10" pointer-events="none"/><path d="M 116.07 132.26 L 120 139.03 L 116.4 137.5 L 113.02 139.46 Z" fill="#76a0e8" stroke="#76a0e8" stroke-miterlimit="10" pointer-events="none"/><path d="M 117.99 200.63 L 117.97 181.4" fill="none" stroke="#76a0e8" stroke-miterlimit="10" pointer-events="none"/><path d="M 118 205.88 L 114.49 198.89 L 117.99 200.63 L 121.49 198.88 Z" fill="#76a0e8" stroke="#76a0e8" stroke-miterlimit="10" pointer-events="none"/><path d="M 117.96 176.15 L 121.47 183.14 L 117.97 181.4 L 114.47 183.15 Z" fill="#76a0e8" stroke="#76a0e8" stroke-miterlimit="10" pointer-events="none"/><rect x="8" y="156" width="123" height="30" rx="4.5" ry="4.5" fill="url(#mx-gradient-dae8fc-1-99ccff-1-s-0)" stroke="#6c8ebf" transform="rotate(-90,69.5,171)" pointer-events="none"/><g fill="#003366" font-family="Helvetica" font-weight="bold" text-anchor="middle" font-size="12px" transform="rotate(-90,69.5,171)"><text x="69.5" y="175">  OpenDevice</text></g></g></svg>