<?xml version="1.0" encoding="UTF-8"?>
<!DOCTYPE svg PUBLIC "-//W3C//DTD SVG 1.1//EN" "http://www.w3.org/Graphics/SVG/1.1/DTD/svg11.dtd">
<svg xmlns="http://www.w3.org/2000/svg" xmlns:xlink="http://www.w3.org/1999/xlink" width="674px" height="158px" version="1.1" style="background-color: rgb(255, 255, 255);"><defs><linearGradient x1="0%" y1="0%" x2="0%" y2="100%" id="mx-gradient-f5f5f5-1-e6e6e6-1-s-0"><stop offset="0%" style="stop-color:#F5F5F5"/><stop offset="100%" style="stop-color:#E6E6E6"/></linearGradient><linearGradient x1="0%" y1="0%" x2="0%" y2="100%" id="mx-gradient-fff2cc-1-ffd966-1-s-0"><stop offset="0%" style="stop-color:#FFF2CC"/><stop offset="100%" style="stop-color:#FFD966"/></linearGradient><linearGradient x1="0%" y1="0%" x2="0%" y2="100%" id="mx-gradient-add9b0-1-c1e8be-1-s-0"><stop offset="0%" style="stop-color:#ADD9B0"/><stop offset="100%" style="stop-color:#C1E8BE"/></linearGradient><linearGradient x1="0%" y1="0%" x2="0%" y2="100%" id="mx-gradient-ffcd28-1-ffa500-1-s-0"><stop offset="0%" style="stop-color:#FFCD28"/><stop offset="100%" style="stop-color:#FFA500"/></linearGradient><linearGradient x1="0%" y1="0%" x2="0%" y2="100%" id="mx-gradient-e1d5e7-1-d0c5d6-1-s-0"><stop offset="0%" style="stop-color:#E1D5E7"/><stop offset="100%" style="stop-color:#D0C5D6"/></linearGradient></defs><g transform="translate(0.5,0.5)"><rect x="101" y="1" width="430" height="146" rx="21.9" ry="21.9" fill="url(#mx-gradient-f5f5f5-1-e6e6e6-1-s-0)" stroke="#666666" stroke-dasharray="3 3" pointer-events="none"/><g fill="#000000" font-family="Helvetica" font-weight="bold" text-anchor="middle" font-size="12px"><text x="316" y="20">OpenDevice - Connections</text></g><rect x="578" y="60" width="83" height="54" rx="8.1" ry="8.1" fill="#dae8fc" stroke="#6c8ebf" pointer-events="none"/><g fill="#000000" font-family="Helvetica" text-anchor="middle" font-size="12px"><text x="619.5" y="91">Applications</text></g><rect x="326" y="29" width="28" height="101" rx="4.2" ry="4.2" fill="url(#mx-gradient-fff2cc-1-ffd966-1-s-0)" stroke="#d6b656" pointer-events="none"/><g fill="#000000" font-family="Helvetica" text-anchor="middle" font-size="12px" transform="rotate(-90,340,79.5)"><text x="340" y="83.5">Protocol</text></g><rect x="281" y="29" width="34" height="101" rx="5.1" ry="5.1" fill="url(#mx-gradient-fff2cc-1-ffd966-1-s-0)" stroke="#d6b656" pointer-events="none"/><g fill="#000000" font-family="Helvetica" text-anchor="middle" font-size="12px" transform="rotate(-90,298,79.5)"><text x="298" y="83.5">Commands</text></g><rect x="364" y="29" width="157" height="105" rx="15.75" ry="15.75" fill="url(#mx-gradient-add9b0-1-c1e8be-1-s-0)" stroke="#82b366" pointer-events="none"/><g fill="#000000" font-family="Helvetica" text-anchor="middle" font-size="12px"><text x="442.5" y="48">Input</text></g><rect x="380.65" y="58" width="128.65" height="29" rx="4.35" ry="4.35" fill="#d7ebd6" stroke="#82b366" pointer-events="none"/><g fill="#000000" font-family="Helvetica" text-anchor="middle" font-size="12px"><text x="444.98" y="76.5">WebSocket Server</text></g><rect x="380.65" y="95" width="128.65" height="29" rx="4.35" ry="4.35" fill="#d7ebd6" stroke="#82b366" pointer-events="none"/><g fill="#000000" font-family="Helvetica" text-anchor="middle" font-size="12px"><text x="444.98" y="113.5">Rest Server</text></g><rect x="115" y="26" width="157" height="105" rx="15.75" ry="15.75" fill="url(#mx-gradient-add9b0-1-c1e8be-1-s-0)" stroke="#82b366" pointer-events="none"/><g fill="#000000" font-family="Helvetica" text-anchor="middle" font-size="12px"><text x="193.5" y="45">Output</text></g><rect x="131.65" y="55" width="128.65" height="29" rx="4.35" ry="4.35" fill="#d7ebd6" stroke="#82b366" pointer-events="none"/><g fill="#000000" font-family="Helvetica" text-anchor="middle" font-size="12px"><text x="195.98" y="73.5">Bluetooth, Usb, Tcp</text></g><rect x="131.65" y="92" width="128.65" height="29" rx="4.35" ry="4.35" fill="#d7ebd6" stroke="#82b366" pointer-events="none"/><g fill="#000000" font-family="Helvetica" text-anchor="middle" font-size="12px"><text x="195.98" y="110.5">MQTT</text></g><path d="M 578.5 82 L 576.52 91.8 L 527.12 81.78 L 525.03 92.07 L 509.49 73.1 L 531.19 61.69 L 529.1 71.98 Z" fill="url(#mx-gradient-ffcd28-1-ffa500-1-s-0)" stroke="#d79b00" stroke-miterlimit="10" pointer-events="none"/><path d="M 575.94 82.41 L 579.11 91.9 L 529.08 108.58 L 532.4 118.54 L 509.47 109.84 L 522.6 89.13 L 525.92 99.09 Z" fill="url(#mx-gradient-ffcd28-1-ffa500-1-s-0)" stroke="#d79b00" stroke-miterlimit="10" pointer-events="none"/><path d="M 75.89 23.08 L 127.11 65.92" fill="none" stroke="#000000" stroke-miterlimit="10" stroke-dasharray="3 3" pointer-events="none"/><path d="M 71.86 19.72 L 79.47 21.52 L 75.89 23.08 L 74.98 26.89 Z" fill="#000000" stroke="#000000" stroke-miterlimit="10" pointer-events="none"/><path d="M 131.14 69.28 L 123.53 67.48 L 127.11 65.92 L 128.02 62.11 Z" fill="#000000" stroke="#000000" stroke-miterlimit="10" pointer-events="none"/><rect x="1" y="4" width="70" height="29" rx="4.35" ry="4.35" fill="url(#mx-gradient-e1d5e7-1-d0c5d6-1-s-0)" stroke="#9673a6" pointer-events="none"/><g fill="#000000" font-family="Helvetica" text-anchor="middle" font-size="12px"><text x="36" y="22.5">Device 1</text></g><path d="M 77.02 58.07 L 125.98 74.93" fill="none" stroke="#000000" stroke-miterlimit="10" stroke-dasharray="3 3" pointer-events="none"/><path d="M 72.06 56.36 L 79.82 55.33 L 77.02 58.07 L 77.54 61.95 Z" fill="#000000" stroke="#000000" stroke-miterlimit="10" pointer-events="none"/><path d="M 130.94 76.64 L 123.18 77.67 L 125.98 74.93 L 125.46 71.05 Z" fill="#000000" stroke="#000000" stroke-miterlimit="10" pointer-events="none"/><rect x="1" y="41" width="70" height="29" rx="4.35" ry="4.35" fill="url(#mx-gradient-e1d5e7-1-d0c5d6-1-s-0)" stroke="#9673a6" pointer-events="none"/><g fill="#000000" font-family="Helvetica" text-anchor="middle" font-size="12px"><text x="36" y="59.5">Device 2</text></g><path d="M 36 33 L 36 33" fill="none" stroke="#000000" stroke-miterlimit="10" stroke-dasharray="3 3" pointer-events="none"/><path d="M 36 33 L 36 33 L 36 33 L 36 33 Z" fill="#000000" stroke="#000000" stroke-miterlimit="10" pointer-events="none"/><path d="M 36 33 L 36 33 L 36 33 L 36 33 Z" fill="#000000" stroke="#000000" stroke-miterlimit="10" pointer-events="none"/><path d="M 77.36 97.21 L 125.64 98.79" fill="none" stroke="#000000" stroke-miterlimit="10" stroke-dasharray="3 3" pointer-events="none"/><path d="M 72.12 97.04 L 79.23 93.77 L 77.36 97.21 L 79 100.76 Z" fill="#000000" stroke="#000000" stroke-miterlimit="10" pointer-events="none"/><path d="M 130.88 98.96 L 123.77 102.23 L 125.64 98.79 L 124 95.24 Z" fill="#000000" stroke="#000000" stroke-miterlimit="10" pointer-events="none"/><rect x="1" y="82" width="70" height="29" rx="4.35" ry="4.35" fill="url(#mx-gradient-e1d5e7-1-d0c5d6-1-s-0)" stroke="#9673a6" pointer-events="none"/><g fill="#000000" font-family="Helvetica" text-anchor="middle" font-size="12px"><text x="36" y="100.5">Device 3</text></g><path d="M 76.86 130.5 L 126.14 109.5" fill="none" stroke="#000000" stroke-miterlimit="10" stroke-dasharray="3 3" pointer-events="none"/><path d="M 72.03 132.56 L 77.1 126.6 L 76.86 130.5 L 79.84 133.04 Z" fill="#000000" stroke="#000000" stroke-miterlimit="10" pointer-events="none"/><path d="M 130.97 107.44 L 125.9 113.4 L 126.14 109.5 L 123.16 106.96 Z" fill="#000000" stroke="#000000" stroke-miterlimit="10" pointer-events="none"/><rect x="1" y="118" width="70" height="29" rx="4.35" ry="4.35" fill="url(#mx-gradient-e1d5e7-1-d0c5d6-1-s-0)" stroke="#9673a6" pointer-events="none"/><g fill="#000000" font-family="Helvetica" text-anchor="middle" font-size="12px"><text x="36" y="136.5">Device 4</text></g><path d="M 36 111 L 36 111" fill="none" stroke="#000000" stroke-miterlimit="10" stroke-dasharray="3 3" pointer-events="none"/><path d="M 36 111 L 36 111 L 36 111 L 36 111 Z" fill="#000000" stroke="#000000" stroke-miterlimit="10" pointer-events="none"/><path d="M 36 111 L 36 111 L 36 111 L 36 111 Z" fill="#000000" stroke="#000000" stroke-miterlimit="10" pointer-events="none"/></g></svg>