<?xml version="1.0" encoding="UTF-8" standalone="no"?>
<svg
   xmlns:dc="http://purl.org/dc/elements/1.1/"
   xmlns:cc="http://creativecommons.org/ns#"
   xmlns:rdf="http://www.w3.org/1999/02/22-rdf-syntax-ns#"
   xmlns:svg="http://www.w3.org/2000/svg"
   xmlns="http://www.w3.org/2000/svg"
   xmlns:sodipodi="http://sodipodi.sourceforge.net/DTD/sodipodi-0.dtd"
   xmlns:inkscape="http://www.inkscape.org/namespaces/inkscape"
   fill-opacity="0"
   color-rendering="auto"
   color-interpolation="auto"
   stroke="rgb(0,0,0)"
   text-rendering="auto"
   stroke-linecap="square"
   width="536"
   stroke-miterlimit="10"
   stroke-opacity="0"
   shape-rendering="auto"
   fill="rgb(0,0,0)"
   stroke-dasharray="none"
   font-weight="normal"
   stroke-width="1"
   height="302"
   font-family="'Dialog'"
   font-style="normal"
   stroke-linejoin="miter"
   font-size="12"
   stroke-dashoffset="0"
   image-rendering="auto"
   id="svg2"
   version="1.1"
   inkscape:version="0.48.4 r9939"
   sodipodi:docname="seq_firmware_read_poll.svg">
  <metadata
     id="metadata320">
    <rdf:RDF>
      <cc:Work
         rdf:about="">
        <dc:format>image/svg+xml</dc:format>
        <dc:type
           rdf:resource="http://purl.org/dc/dcmitype/StillImage" />
      </cc:Work>
    </rdf:RDF>
  </metadata>
  <sodipodi:namedview
     pagecolor="#ffffff"
     bordercolor="#666666"
     borderopacity="1"
     objecttolerance="10"
     gridtolerance="10"
     guidetolerance="10"
     inkscape:pageopacity="0"
     inkscape:pageshadow="2"
     inkscape:window-width="1311"
     inkscape:window-height="744"
     id="namedview318"
     showgrid="false"
     inkscape:zoom="3.4194417"
     inkscape:cx="432.9219"
     inkscape:cy="48.305207"
     inkscape:window-x="49"
     inkscape:window-y="24"
     inkscape:window-maximized="1"
     inkscape:current-layer="g312" />
  <!--Generated by the Batik Graphics2D SVG Generator-->
  <defs
     id="genericDefs" />
  <g
     id="g5">
    <defs
       id="defs1">
      <clipPath
         clipPathUnits="userSpaceOnUse"
         id="clipPath1">
        <path
           d="M-7 -7 L98 -7 L98 307 L-7 307 L-7 -7 Z"
           id="path9" />
      </clipPath>
      <clipPath
         clipPathUnits="userSpaceOnUse"
         id="clipPath2">
        <path
           d="M-7 -7 L90 -7 L90 307 L-7 307 L-7 -7 Z"
           id="path12" />
      </clipPath>
      <clipPath
         clipPathUnits="userSpaceOnUse"
         id="clipPath3">
        <path
           d="M-7 -7 L310 -7 L310 222 L-7 222 L-7 -7 Z"
           id="path15" />
      </clipPath>
      <clipPath
         clipPathUnits="userSpaceOnUse"
         id="clipPath4">
        <path
           d="M-7 -7 L-7 222 L310 222 L310 -7 Z"
           id="path18" />
      </clipPath>
      <clipPath
         clipPathUnits="userSpaceOnUse"
         id="clipPath5">
        <path
           d="M0 0 L0 17 L37 17 L37 0 Z"
           id="path21" />
      </clipPath>
      <clipPath
         clipPathUnits="userSpaceOnUse"
         id="clipPath6">
        <path
           d="M-7 -7 L95 -7 L95 307 L-7 307 L-7 -7 Z"
           id="path24" />
      </clipPath>
      <clipPath
         clipPathUnits="userSpaceOnUse"
         id="clipPath7">
        <path
           d="M-7 -7 L310 -7 L310 205 L-7 205 L-7 -7 Z"
           id="path27" />
      </clipPath>
      <clipPath
         clipPathUnits="userSpaceOnUse"
         id="clipPath8">
        <path
           d="M0 0 L0 4 L299 4 L299 0 Z"
           id="path30" />
      </clipPath>
      <clipPath
         clipPathUnits="userSpaceOnUse"
         id="clipPath9">
        <path
           d="M-7 -7 L19 -7 L19 176 L-7 176 L-7 -7 Z"
           id="path33" />
      </clipPath>
      <clipPath
         clipPathUnits="userSpaceOnUse"
         id="clipPath10">
        <path
           d="M-7 -7 L19 -7 L19 143 L-7 143 L-7 -7 Z"
           id="path36" />
      </clipPath>
      <clipPath
         clipPathUnits="userSpaceOnUse"
         id="clipPath11">
        <path
           d="M-7 -7 L131 -7 L131 307 L-7 307 L-7 -7 Z"
           id="path39" />
      </clipPath>
      <clipPath
         clipPathUnits="userSpaceOnUse"
         id="clipPath12">
        <path
           d="M-7 -7 L19 -7 L19 23 L-7 23 L-7 -7 Z"
           id="path42" />
      </clipPath>
      <clipPath
         clipPathUnits="userSpaceOnUse"
         id="clipPath13">
        <path
           d="M-7 -7 L19 -7 L19 51 L-7 51 L-7 -7 Z"
           id="path45" />
      </clipPath>
      <clipPath
         clipPathUnits="userSpaceOnUse"
         id="clipPath14">
        <path
           d="M-7 -7 L163 -7 L163 51 L-7 51 L-7 -7 Z"
           id="path48" />
      </clipPath>
      <clipPath
         clipPathUnits="userSpaceOnUse"
         id="clipPath15">
        <path
           d="M0 0 L0 40 L137 40 L137 0 Z"
           id="path51" />
      </clipPath>
      <clipPath
         clipPathUnits="userSpaceOnUse"
         id="clipPath16">
        <path
           d="M-120 -14 L240 -14 L240 28 L-120 28 L-120 -14 Z"
           id="path54" />
      </clipPath>
      <clipPath
         clipPathUnits="userSpaceOnUse"
         id="clipPath17">
        <path
           d="M-84 -14 L168 -14 L168 28 L-84 28 L-84 -14 Z"
           id="path57" />
      </clipPath>
      <clipPath
         clipPathUnits="userSpaceOnUse"
         id="clipPath18">
        <path
           d="M-79 -14 L158 -14 L158 28 L-79 28 L-79 -14 Z"
           id="path60" />
      </clipPath>
      <clipPath
         clipPathUnits="userSpaceOnUse"
         id="clipPath19">
        <path
           d="M-87 -28 L174 -28 L174 56 L-87 56 L-87 -28 Z"
           id="path63" />
      </clipPath>
      <clipPath
         clipPathUnits="userSpaceOnUse"
         id="clipPath20">
        <path
           d="M0 0 L304 0 L304 104 L0 104 L0 0 Z"
           id="path66" />
      </clipPath>
      <clipPath
         clipPathUnits="userSpaceOnUse"
         id="clipPath21">
        <path
           d="M0 0 L134 0 L134 124 L0 124 L0 0 Z"
           id="path69" />
      </clipPath>
      <clipPath
         clipPathUnits="userSpaceOnUse"
         id="clipPath22">
        <path
           d="M0 0 L416 0 L416 104 L0 104 L0 0 Z"
           id="path72" />
      </clipPath>
      <clipPath
         clipPathUnits="userSpaceOnUse"
         id="clipPath23">
        <path
           d="M0 0 L104 0 L104 110 L0 110 L0 0 Z"
           id="path75" />
      </clipPath>
      <clipPath
         clipPathUnits="userSpaceOnUse"
         id="clipPath24">
        <path
           d="M0 0 L217 0 L217 104 L0 104 L0 0 Z"
           id="path78" />
      </clipPath>
      <clipPath
         clipPathUnits="userSpaceOnUse"
         id="clipPath25">
        <path
           d="M-113 -14 L226 -14 L226 28 L-113 28 L-113 -14 Z"
           id="path81" />
      </clipPath>
      <clipPath
         clipPathUnits="userSpaceOnUse"
         id="clipPath26">
        <path
           d="M-125 -14 L250 -14 L250 28 L-125 28 L-125 -14 Z"
           id="path84" />
      </clipPath>
      <clipPath
         clipPathUnits="userSpaceOnUse"
         id="clipPath27">
        <path
           d="M-104 -14 L208 -14 L208 28 L-104 28 L-104 -14 Z"
           id="path87" />
      </clipPath>
      <clipPath
         clipPathUnits="userSpaceOnUse"
         id="clipPath28">
        <path
           d="M-154 -14 L308 -14 L308 28 L-154 28 L-154 -14 Z"
           id="path90" />
      </clipPath>
      <clipPath
         clipPathUnits="userSpaceOnUse"
         id="clipPath29">
        <path
           d="M-78 -14 L156 -14 L156 28 L-78 28 L-78 -14 Z"
           id="path93" />
      </clipPath>
      <clipPath
         clipPathUnits="userSpaceOnUse"
         id="clipPath30">
        <path
           d="M-122 -14 L244 -14 L244 28 L-122 28 L-122 -14 Z"
           id="path96" />
      </clipPath>
    </defs>
    <g
       fill="white"
       text-rendering="geometricPrecision"
       fill-opacity="1"
       stroke-opacity="1"
       stroke="white"
       id="g98">
      <rect
         x="0"
         width="536"
         height="302"
         y="0"
         stroke="none"
         id="rect100" />
    </g>
    <g
       font-size="11"
       transform="translate(2,2)"
       fill-opacity="1"
       fill="rgb(194,245,122)"
       text-rendering="geometricPrecision"
       font-family="sans-serif"
       stroke="rgb(194,245,122)"
       stroke-opacity="1"
       id="g102">
      <rect
         x="0"
         width="86"
         height="35"
         y="0"
         clip-path="url(#clipPath1)"
         stroke="none"
         id="rect104" />
    </g>
    <g
       font-size="11"
       stroke-linecap="butt"
       transform="translate(2,2)"
       fill-opacity="1"
       fill="black"
       text-rendering="geometricPrecision"
       font-family="sans-serif"
       stroke-linejoin="round"
       stroke="black"
       stroke-opacity="1"
       stroke-miterlimit="0"
       id="g106">
      <rect
         fill="none"
         x="0"
         width="86"
         height="35"
         y="0"
         clip-path="url(#clipPath1)"
         id="rect108" />
      <line
         clip-path="url(#clipPath1)"
         fill="none"
         x1="43"
         x2="43"
         y1="35"
         stroke-linejoin="bevel"
         y2="296"
         stroke-dasharray="8,3"
         id="line110" />
    </g>
    <g
       font-size="11"
       transform="translate(218,2)"
       fill-opacity="1"
       fill="rgb(194,245,122)"
       text-rendering="geometricPrecision"
       font-family="sans-serif"
       stroke="rgb(194,245,122)"
       stroke-opacity="1"
       id="g112">
      <rect
         x="0"
         width="78"
         height="35"
         y="0"
         clip-path="url(#clipPath2)"
         stroke="none"
         id="rect114" />
    </g>
    <g
       font-size="11"
       stroke-linecap="butt"
       transform="translate(218,2)"
       fill-opacity="1"
       fill="black"
       text-rendering="geometricPrecision"
       font-family="sans-serif"
       stroke-linejoin="round"
       stroke="black"
       stroke-opacity="1"
       stroke-miterlimit="0"
       id="g116">
      <rect
         fill="none"
         x="0"
         width="78"
         height="35"
         y="0"
         clip-path="url(#clipPath2)"
         id="rect118" />
      <line
         clip-path="url(#clipPath2)"
         fill="none"
         x1="39"
         x2="39"
         y1="35"
         stroke-linejoin="bevel"
         y2="296"
         stroke-dasharray="8,3"
         id="line120" />
    </g>
    <g
       fill-opacity="1"
       text-rendering="geometricPrecision"
       stroke="black"
       stroke-linecap="butt"
       transform="translate(2,56)"
       stroke-miterlimit="0"
       stroke-opacity="1"
       fill="black"
       stroke-dasharray="8,5"
       font-weight="bold"
       font-family="sans-serif"
       stroke-linejoin="round"
       font-size="11"
       id="g122">
      <rect
         fill="none"
         x="0"
         width="299"
         height="211"
         y="0"
         clip-path="url(#clipPath4)"
         id="rect124" />
    </g>
    <g
       font-size="11"
       transform="translate(2,56)"
       fill-opacity="1"
       fill="white"
       text-rendering="geometricPrecision"
       font-family="sans-serif"
       stroke="white"
       font-weight="bold"
       stroke-opacity="1"
       id="g126">
      <path
         d="M36 0 L36 8 L30 16 L0 16 L0 0 Z"
         clip-path="url(#clipPath4)"
         stroke="none"
         id="path128" />
    </g>
    <g
       fill-opacity="1"
       text-rendering="geometricPrecision"
       stroke="black"
       stroke-linecap="butt"
       transform="translate(2,56)"
       stroke-miterlimit="0"
       stroke-opacity="1"
       fill="black"
       stroke-dasharray="8,5"
       font-weight="bold"
       font-family="sans-serif"
       stroke-linejoin="round"
       font-size="11"
       id="g130">
      <path
         fill="none"
         d="M36 0 L36 8 L30 16 L0 16 L0 0 Z"
         clip-path="url(#clipPath4)"
         id="path132" />
    </g>
    <g
       font-size="11"
       transform="translate(2,56)"
       fill-opacity="1"
       fill="black"
       text-rendering="geometricPrecision"
       font-family="sans-serif"
       stroke="black"
       font-weight="bold"
       stroke-opacity="1"
       id="g134">
      <text
         x="4"
         xml:space="preserve"
         y="11"
         clip-path="url(#clipPath5)"
         stroke="none"
         id="text136">loop</text>
    </g>
    <g
       font-size="11"
       transform="translate(448,2)"
       fill-opacity="1"
       fill="rgb(166,207,216)"
       text-rendering="geometricPrecision"
       font-family="sans-serif"
       stroke="rgb(166,207,216)"
       stroke-opacity="1"
       id="g138">
      <rect
         x="0"
         width="83"
         height="35"
         y="0"
         clip-path="url(#clipPath6)"
         stroke="none"
         id="rect140" />
    </g>
    <g
       font-size="11"
       stroke-linecap="butt"
       transform="translate(448,2)"
       fill-opacity="1"
       fill="black"
       text-rendering="geometricPrecision"
       font-family="sans-serif"
       stroke-linejoin="round"
       stroke="black"
       stroke-opacity="1"
       stroke-miterlimit="0"
       id="g142">
      <rect
         fill="none"
         x="0"
         width="83"
         height="35"
         y="0"
         clip-path="url(#clipPath6)"
         id="rect144" />
      <line
         clip-path="url(#clipPath6)"
         fill="none"
         x1="41"
         x2="41"
         y1="35"
         stroke-linejoin="bevel"
         y2="296"
         stroke-dasharray="8,3"
         id="line146" />
    </g>
    <g
       font-size="11"
       transform="translate(41,83)"
       fill-opacity="1"
       fill="rgb(194,245,122)"
       text-rendering="geometricPrecision"
       font-family="sans-serif"
       stroke="rgb(194,245,122)"
       stroke-opacity="1"
       id="g148">
      <rect
         x="0"
         width="8"
         height="165"
         y="0"
         clip-path="url(#clipPath9)"
         stroke="none"
         id="rect150" />
    </g>
    <g
       font-size="11"
       stroke-linecap="butt"
       transform="translate(41,83)"
       fill-opacity="1"
       fill="black"
       text-rendering="geometricPrecision"
       font-family="sans-serif"
       stroke-linejoin="round"
       stroke="black"
       stroke-opacity="1"
       stroke-miterlimit="0"
       id="g152">
      <rect
         fill="none"
         x="0"
         width="8"
         height="165"
         y="0"
         clip-path="url(#clipPath9)"
         id="rect154" />
    </g>
    <g
       font-size="11"
       transform="translate(45,101)"
       fill-opacity="1"
       fill="rgb(194,245,122)"
       text-rendering="geometricPrecision"
       font-family="sans-serif"
       stroke="rgb(194,245,122)"
       stroke-opacity="1"
       id="g156">
      <rect
         x="0"
         width="8"
         height="132"
         y="0"
         clip-path="url(#clipPath10)"
         stroke="none"
         id="rect158" />
    </g>
    <g
       font-size="11"
       stroke-linecap="butt"
       transform="translate(45,101)"
       fill-opacity="1"
       fill="black"
       text-rendering="geometricPrecision"
       font-family="sans-serif"
       stroke-linejoin="round"
       stroke="black"
       stroke-opacity="1"
       stroke-miterlimit="0"
       id="g160">
      <rect
         fill="none"
         x="0"
         width="8"
         height="132"
         y="0"
         clip-path="url(#clipPath10)"
         id="rect162" />
    </g>
    <g
       font-size="11"
       transform="translate(309,2)"
       fill-opacity="1"
       fill="rgb(194,245,122)"
       text-rendering="geometricPrecision"
       font-family="sans-serif"
       stroke="rgb(194,245,122)"
       stroke-opacity="1"
       id="g164">
      <rect
         x="0"
         width="119"
         height="35"
         y="0"
         clip-path="url(#clipPath11)"
         stroke="none"
         id="rect166" />
    </g>
    <g
       font-size="11"
       stroke-linecap="butt"
       transform="translate(309,2)"
       fill-opacity="1"
       fill="black"
       text-rendering="geometricPrecision"
       font-family="sans-serif"
       stroke-linejoin="round"
       stroke="black"
       stroke-opacity="1"
       stroke-miterlimit="0"
       id="g168">
      <rect
         fill="none"
         x="0"
         width="119"
         height="35"
         y="0"
         clip-path="url(#clipPath11)"
         id="rect170" />
      <line
         clip-path="url(#clipPath11)"
         fill="none"
         x1="59"
         x2="59"
         y1="35"
         stroke-linejoin="bevel"
         y2="296"
         stroke-dasharray="8,3"
         id="line172" />
    </g>
    <g
       font-size="11"
       transform="translate(486,196)"
       fill-opacity="1"
       fill="rgb(166,207,216)"
       text-rendering="geometricPrecision"
       font-family="sans-serif"
       stroke="rgb(166,207,216)"
       stroke-opacity="1"
       id="g174">
      <rect
         x="0"
         width="8"
         height="12"
         y="0"
         clip-path="url(#clipPath12)"
         stroke="none"
         id="rect176" />
    </g>
    <g
       font-size="11"
       stroke-linecap="butt"
       transform="translate(486,196)"
       fill-opacity="1"
       fill="black"
       text-rendering="geometricPrecision"
       font-family="sans-serif"
       stroke-linejoin="round"
       stroke="black"
       stroke-opacity="1"
       stroke-miterlimit="0"
       id="g178">
      <rect
         fill="none"
         x="0"
         width="8"
         height="12"
         y="0"
         clip-path="url(#clipPath12)"
         id="rect180" />
    </g>
    <g
       font-size="11"
       transform="translate(365,168)"
       fill-opacity="1"
       fill="rgb(194,245,122)"
       text-rendering="geometricPrecision"
       font-family="sans-serif"
       stroke="rgb(194,245,122)"
       stroke-opacity="1"
       id="g182">
      <rect
         x="0"
         width="8"
         height="40"
         y="0"
         clip-path="url(#clipPath13)"
         stroke="none"
         id="rect184" />
    </g>
    <g
       font-size="11"
       stroke-linecap="butt"
       transform="translate(365,168)"
       fill-opacity="1"
       fill="black"
       text-rendering="geometricPrecision"
       font-family="sans-serif"
       stroke-linejoin="round"
       stroke="black"
       stroke-opacity="1"
       stroke-miterlimit="0"
       id="g186">
      <rect
         fill="none"
         x="0"
         width="8"
         height="40"
         y="0"
         clip-path="url(#clipPath13)"
         id="rect188" />
    </g>
    <g
       font-size="11"
       transform="translate(253,116)"
       fill-opacity="1"
       fill="rgb(194,245,122)"
       text-rendering="geometricPrecision"
       font-family="sans-serif"
       stroke="rgb(194,245,122)"
       stroke-opacity="1"
       id="g190">
      <rect
         x="0"
         width="8"
         height="40"
         y="0"
         clip-path="url(#clipPath13)"
         stroke="none"
         id="rect192" />
    </g>
    <g
       font-size="11"
       stroke-linecap="butt"
       transform="translate(253,116)"
       fill-opacity="1"
       fill="black"
       text-rendering="geometricPrecision"
       font-family="sans-serif"
       stroke-linejoin="round"
       stroke="black"
       stroke-opacity="1"
       stroke-miterlimit="0"
       id="g194">
      <rect
         fill="none"
         x="0"
         width="8"
         height="40"
         y="0"
         clip-path="url(#clipPath13)"
         id="rect196" />
    </g>
    <g
       font-size="11"
       transform="translate(75,180)"
       fill-opacity="1"
       fill="rgb(122,207,245)"
       text-rendering="geometricPrecision"
       font-family="sans-serif"
       stroke="rgb(122,207,245)"
       stroke-opacity="1"
       id="g198">
      <polygon
         points=" 0 0 136 0 151 15 136 15 136 0 151 15 151 39 0 39"
         clip-path="url(#clipPath14)"
         stroke="none"
         id="polygon200" />
    </g>
    <g
       font-size="11"
       stroke-linecap="butt"
       transform="translate(75,180)"
       fill-opacity="1"
       fill="black"
       text-rendering="geometricPrecision"
       font-family="sans-serif"
       stroke-linejoin="round"
       stroke="black"
       stroke-opacity="1"
       stroke-miterlimit="0"
       id="g202">
      <polygon
         fill="none"
         points=" 0 0 136 0 151 15 136 15 136 0 151 15 151 39 0 39"
         clip-path="url(#clipPath14)"
         id="polygon204" />
    </g>
    <g
       font-size="15"
       transform="translate(75,180)"
       fill-opacity="1"
       fill="black"
       text-rendering="geometricPrecision"
       font-family="'Ubuntu'"
       stroke="black"
       stroke-opacity="1"
       id="g206">
      <path
         d="M8.3594 7.4292 L8.3594 8.3511 Q7.9531 8.1167 7.5312 7.9995 Q7.1094 7.8823 6.6719 7.8823 Q5.7188 7.8823 5.1875 8.4917 Q4.6562 9.1011 4.6562 10.2104 Q4.6562 11.3042 5.1875 11.9136 Q5.7188 12.5229 6.6719 12.5229 Q7.1094 12.5229 7.5312 12.4136 Q7.9531 12.3042 8.3594 12.0698 L8.3594 12.9761 Q7.9531 13.1792 7.5078 13.2729 Q7.0625 13.3667 6.5625 13.3667 Q5.2031 13.3667 4.4062 12.5151 Q3.6094 11.6636 3.6094 10.2104 Q3.6094 8.7417 4.4141 7.8979 Q5.2188 7.0542 6.625 7.0542 Q7.0938 7.0542 7.5234 7.1479 Q7.9531 7.2417 8.3594 7.4292 ZM14.7188 8.3511 Q15.0938 7.6792 15.6094 7.3667 Q16.125 7.0542 16.8281 7.0542 Q17.7656 7.0542 18.2734 7.7104 Q18.7812 8.3667 18.7812 9.5854 L18.7812 13.2104 L17.7812 13.2104 L17.7812 9.6167 Q17.7812 8.7417 17.4766 8.3276 Q17.1719 7.9136 16.5469 7.9136 Q15.7812 7.9136 15.3359 8.4214 Q14.8906 8.9292 14.8906 9.8042 L14.8906 13.2104 L13.8906 13.2104 L13.8906 9.6167 Q13.8906 8.7417 13.5859 8.3276 Q13.2812 7.9136 12.6406 7.9136 Q11.8906 7.9136 11.4453 8.4214 Q11 8.9292 11 9.8042 L11 13.2104 L10 13.2104 L10 7.1948 L11 7.1948 L11 8.1323 Q11.3281 7.5698 11.8047 7.312 Q12.2812 7.0542 12.9219 7.0542 Q13.5781 7.0542 14.0391 7.3823 Q14.5 7.7104 14.7188 8.3511 ZM25 8.1011 L25 4.8511 L25.9844 4.8511 L25.9844 13.2104 L25 13.2104 L25 12.3042 Q24.6875 12.8511 24.2109 13.1089 Q23.7344 13.3667 23.0625 13.3667 Q21.9844 13.3667 21.2969 12.4995 Q20.6094 11.6323 20.6094 10.2104 Q20.6094 8.7886 21.2969 7.9214 Q21.9844 7.0542 23.0625 7.0542 Q23.7344 7.0542 24.2109 7.312 Q24.6875 7.5698 25 8.1011 ZM21.625 10.2104 Q21.625 11.3042 22.0781 11.9214 Q22.5312 12.5386 23.3125 12.5386 Q24.0938 12.5386 24.5469 11.9214 Q25 11.3042 25 10.2104 Q25 9.1167 24.5469 8.4995 Q24.0938 7.8823 23.3125 7.8823 Q22.5312 7.8823 22.0781 8.4995 Q21.625 9.1167 21.625 10.2104 ZM32.2969 11.8511 L33.4219 11.8511 L33.4219 13.2104 L32.2969 13.2104 L32.2969 11.8511 ZM32.2969 7.5229 L33.4219 7.5229 L33.4219 8.8823 L32.2969 8.8823 L32.2969 7.5229 ZM41.1719 6.0854 L41.1719 12.3198 L42.4688 12.3198 Q44.1406 12.3198 44.9062 11.5698 Q45.6719 10.8198 45.6719 9.1948 Q45.6719 7.5854 44.9062 6.8354 Q44.1406 6.0854 42.4688 6.0854 L41.1719 6.0854 ZM40.0781 5.1948 L42.3125 5.1948 Q44.6406 5.1948 45.7344 6.1636 Q46.8281 7.1323 46.8281 9.1948 Q46.8281 11.2729 45.7266 12.2417 Q44.625 13.2104 42.3125 13.2104 L40.0781 13.2104 L40.0781 5.1948 ZM53.1875 9.9604 L53.1875 10.4448 L48.6406 10.4448 Q48.7031 11.4604 49.25 11.9917 Q49.7969 12.5229 50.7812 12.5229 Q51.3594 12.5229 51.8906 12.3823 Q52.4219 12.2417 52.9531 11.9761 L52.9531 12.8979 Q52.4219 13.1323 51.8594 13.2495 Q51.2969 13.3667 50.7344 13.3667 Q49.2812 13.3667 48.4453 12.5308 Q47.6094 11.6948 47.6094 10.2573 Q47.6094 8.7886 48.4062 7.9214 Q49.2031 7.0542 50.5625 7.0542 Q51.7656 7.0542 52.4766 7.8354 Q53.1875 8.6167 53.1875 9.9604 ZM52.1875 9.6636 Q52.1875 8.8511 51.7422 8.3667 Q51.2969 7.8823 50.5625 7.8823 Q49.7344 7.8823 49.2422 8.3511 Q48.75 8.8198 48.6719 9.6636 L52.1875 9.6636 ZM54.3281 7.1948 L55.375 7.1948 L57.25 12.2417 L59.1406 7.1948 L60.1875 7.1948 L57.9219 13.2104 L56.5781 13.2104 L54.3281 7.1948 ZM61.0312 7.1948 L62.0312 7.1948 L62.0312 13.2104 L61.0312 13.2104 L61.0312 7.1948 ZM61.0312 4.8511 L62.0312 4.8511 L62.0312 6.1011 L61.0312 6.1011 L61.0312 4.8511 ZM68.3594 7.4292 L68.3594 8.3511 Q67.9531 8.1167 67.5312 7.9995 Q67.1094 7.8823 66.6719 7.8823 Q65.7188 7.8823 65.1875 8.4917 Q64.6562 9.1011 64.6562 10.2104 Q64.6562 11.3042 65.1875 11.9136 Q65.7188 12.5229 66.6719 12.5229 Q67.1094 12.5229 67.5312 12.4136 Q67.9531 12.3042 68.3594 12.0698 L68.3594 12.9761 Q67.9531 13.1792 67.5078 13.2729 Q67.0625 13.3667 66.5625 13.3667 Q65.2031 13.3667 64.4062 12.5151 Q63.6094 11.6636 63.6094 10.2104 Q63.6094 8.7417 64.4141 7.8979 Q65.2188 7.0542 66.625 7.0542 Q67.0938 7.0542 67.5234 7.1479 Q67.9531 7.2417 68.3594 7.4292 ZM75.1875 9.9604 L75.1875 10.4448 L70.6406 10.4448 Q70.7031 11.4604 71.25 11.9917 Q71.7969 12.5229 72.7812 12.5229 Q73.3594 12.5229 73.8906 12.3823 Q74.4219 12.2417 74.9531 11.9761 L74.9531 12.8979 Q74.4219 13.1323 73.8594 13.2495 Q73.2969 13.3667 72.7344 13.3667 Q71.2812 13.3667 70.4453 12.5308 Q69.6094 11.6948 69.6094 10.2573 Q69.6094 8.7886 70.4062 7.9214 Q71.2031 7.0542 72.5625 7.0542 Q73.7656 7.0542 74.4766 7.8354 Q75.1875 8.6167 75.1875 9.9604 ZM74.1875 9.6636 Q74.1875 8.8511 73.7422 8.3667 Q73.2969 7.8823 72.5625 7.8823 Q71.7344 7.8823 71.2422 8.3511 Q70.75 8.8198 70.6719 9.6636 L74.1875 9.6636 ZM83.0781 5.8042 L83.0781 6.9604 Q82.5312 6.4448 81.9141 6.1948 Q81.2969 5.9448 80.5938 5.9448 Q79.2188 5.9448 78.4922 6.7808 Q77.7656 7.6167 77.7656 9.2104 Q77.7656 10.7886 78.4922 11.6323 Q79.2188 12.4761 80.5938 12.4761 Q81.2969 12.4761 81.9141 12.2261 Q82.5312 11.9761 83.0781 11.4604 L83.0781 12.5854 Q82.5156 12.9761 81.8828 13.1714 Q81.25 13.3667 80.5312 13.3667 Q78.7188 13.3667 77.6719 12.2495 Q76.625 11.1323 76.625 9.2104 Q76.625 7.2729 77.6719 6.1558 Q78.7188 5.0386 80.5312 5.0386 Q81.25 5.0386 81.8906 5.2339 Q82.5312 5.4292 83.0781 5.8042 ZM87.375 7.8823 Q86.5781 7.8823 86.1172 8.5073 Q85.6562 9.1323 85.6562 10.2104 Q85.6562 11.2886 86.1094 11.9058 Q86.5625 12.5229 87.375 12.5229 Q88.1562 12.5229 88.6172 11.9058 Q89.0781 11.2886 89.0781 10.2104 Q89.0781 9.1323 88.6172 8.5073 Q88.1562 7.8823 87.375 7.8823 ZM87.375 7.0542 Q88.6562 7.0542 89.3906 7.8901 Q90.125 8.7261 90.125 10.2104 Q90.125 11.6792 89.3906 12.5229 Q88.6562 13.3667 87.375 13.3667 Q86.0781 13.3667 85.3438 12.5229 Q84.6094 11.6792 84.6094 10.2104 Q84.6094 8.7261 85.3438 7.8901 Q86.0781 7.0542 87.375 7.0542 ZM96.7188 8.3511 Q97.0938 7.6792 97.6094 7.3667 Q98.125 7.0542 98.8281 7.0542 Q99.7656 7.0542 100.2734 7.7104 Q100.7812 8.3667 100.7812 9.5854 L100.7812 13.2104 L99.7812 13.2104 L99.7812 9.6167 Q99.7812 8.7417 99.4766 8.3276 Q99.1719 7.9136 98.5469 7.9136 Q97.7812 7.9136 97.3359 8.4214 Q96.8906 8.9292 96.8906 9.8042 L96.8906 13.2104 L95.8906 13.2104 L95.8906 9.6167 Q95.8906 8.7417 95.5859 8.3276 Q95.2812 7.9136 94.6406 7.9136 Q93.8906 7.9136 93.4453 8.4214 Q93 8.9292 93 9.8042 L93 13.2104 L92 13.2104 L92 7.1948 L93 7.1948 L93 8.1323 Q93.3281 7.5698 93.8047 7.312 Q94.2812 7.0542 94.9219 7.0542 Q95.5781 7.0542 96.0391 7.3823 Q96.5 7.7104 96.7188 8.3511 ZM107.7188 8.3511 Q108.0938 7.6792 108.6094 7.3667 Q109.125 7.0542 109.8281 7.0542 Q110.7656 7.0542 111.2734 7.7104 Q111.7812 8.3667 111.7812 9.5854 L111.7812 13.2104 L110.7812 13.2104 L110.7812 9.6167 Q110.7812 8.7417 110.4766 8.3276 Q110.1719 7.9136 109.5469 7.9136 Q108.7812 7.9136 108.3359 8.4214 Q107.8906 8.9292 107.8906 9.8042 L107.8906 13.2104 L106.8906 13.2104 L106.8906 9.6167 Q106.8906 8.7417 106.5859 8.3276 Q106.2812 7.9136 105.6406 7.9136 Q104.8906 7.9136 104.4453 8.4214 Q104 8.9292 104 9.8042 L104 13.2104 L103 13.2104 L103 7.1948 L104 7.1948 L104 8.1323 Q104.3281 7.5698 104.8047 7.312 Q105.2812 7.0542 105.9219 7.0542 Q106.5781 7.0542 107.0391 7.3823 Q107.5 7.7104 107.7188 8.3511 ZM116.7656 10.1792 Q115.5781 10.1792 115.1172 10.4604 Q114.6562 10.7417 114.6562 11.3979 Q114.6562 11.9136 115 12.2261 Q115.3438 12.5386 115.9375 12.5386 Q116.7656 12.5386 117.2578 11.9526 Q117.75 11.3667 117.75 10.4136 L117.75 10.1792 L116.7656 10.1792 ZM118.7344 9.7729 L118.7344 13.2104 L117.75 13.2104 L117.75 12.3042 Q117.4219 12.8511 116.9141 13.1089 Q116.4062 13.3667 115.6719 13.3667 Q114.75 13.3667 114.2031 12.8511 Q113.6562 12.3354 113.6562 11.4604 Q113.6562 10.4448 114.3359 9.9292 Q115.0156 9.4136 116.375 9.4136 L117.75 9.4136 L117.75 9.3198 Q117.75 8.6323 117.3047 8.2573 Q116.8594 7.8823 116.0469 7.8823 Q115.5312 7.8823 115.0391 8.0073 Q114.5469 8.1323 114.0938 8.3823 L114.0938 7.4761 Q114.6406 7.2573 115.1562 7.1558 Q115.6719 7.0542 116.1406 7.0542 Q117.4531 7.0542 118.0938 7.7261 Q118.7344 8.3979 118.7344 9.7729 ZM126.0312 9.5854 L126.0312 13.2104 L125.0469 13.2104 L125.0469 9.6167 Q125.0469 8.7573 124.7188 8.3354 Q124.3906 7.9136 123.7188 7.9136 Q122.9219 7.9136 122.4609 8.4214 Q122 8.9292 122 9.8042 L122 13.2104 L121 13.2104 L121 7.1948 L122 7.1948 L122 8.1323 Q122.3438 7.5854 122.8281 7.3198 Q123.3125 7.0542 123.9375 7.0542 Q124.9688 7.0542 125.5 7.6948 Q126.0312 8.3354 126.0312 9.5854 ZM132 8.1011 L132 4.8511 L132.9844 4.8511 L132.9844 13.2104 L132 13.2104 L132 12.3042 Q131.6875 12.8511 131.2109 13.1089 Q130.7344 13.3667 130.0625 13.3667 Q128.9844 13.3667 128.2969 12.4995 Q127.6094 11.6323 127.6094 10.2104 Q127.6094 8.7886 128.2969 7.9214 Q128.9844 7.0542 130.0625 7.0542 Q130.7344 7.0542 131.2109 7.312 Q131.6875 7.5698 132 8.1011 ZM128.625 10.2104 Q128.625 11.3042 129.0781 11.9214 Q129.5312 12.5386 130.3125 12.5386 Q131.0938 12.5386 131.5469 11.9214 Q132 11.3042 132 10.2104 Q132 9.1167 131.5469 8.4995 Q131.0938 7.8823 130.3125 7.8823 Q129.5312 7.8823 129.0781 8.4995 Q128.625 9.1167 128.625 10.2104 Z"
         clip-path="url(#clipPath15)"
         stroke="none"
         id="path208" />
    </g>
    <g
       font-size="11"
       transform="translate(309,12)"
       fill-opacity="1"
       fill="black"
       text-rendering="geometricPrecision"
       font-family="sans-serif"
       stroke="black"
       stroke-opacity="1"
       id="g210">
      <text
         x="10"
         xml:space="preserve"
         y="11"
         clip-path="url(#clipPath16)"
         stroke="none"
         id="text212">DeviceConnection</text>
    </g>
    <g
       font-size="11"
       transform="translate(448,12)"
       fill-opacity="1"
       fill="black"
       text-rendering="geometricPrecision"
       font-family="sans-serif"
       stroke="black"
       stroke-opacity="1"
       id="g214">
      <text
         x="30"
         xml:space="preserve"
         y="11"
         clip-path="url(#clipPath17)"
         stroke="none"
         id="text216">App</text>
    </g>
    <g
       font-size="11"
       transform="translate(218,12)"
       fill-opacity="1"
       fill="black"
       text-rendering="geometricPrecision"
       font-family="sans-serif"
       stroke="black"
       stroke-opacity="1"
       id="g218">
      <text
         x="20"
         xml:space="preserve"
         y="11"
         clip-path="url(#clipPath18)"
         stroke="none"
         id="text220">Device</text>
    </g>
    <g
       font-size="11"
       transform="translate(2,5)"
       fill-opacity="1"
       fill="black"
       text-rendering="geometricPrecision"
       font-family="sans-serif"
       stroke="black"
       stroke-opacity="1"
       id="g222">
      <text
         x="9"
         xml:space="preserve"
         y="11"
         clip-path="url(#clipPath19)"
         stroke="none"
         id="text224">OpenDevice</text>
      <text
         x="12"
         xml:space="preserve"
         y="25"
         clip-path="url(#clipPath19)"
         stroke="none"
         id="text226">(Firmware)</text>
    </g>
    <g
       font-size="11"
       stroke-linecap="butt"
       transform="translate(3,71)"
       fill-opacity="1"
       fill="black"
       text-rendering="geometricPrecision"
       font-family="sans-serif"
       stroke-linejoin="round"
       stroke="black"
       stroke-opacity="1"
       id="g228">
      <line
         y2="50"
         fill="none"
         x1="50"
         clip-path="url(#clipPath20)"
         x2="250"
         y1="50"
         id="line230" />
      <polygon
         points=" 250 50 238 44 238 56"
         clip-path="url(#clipPath20)"
         stroke="none"
         id="polygon232" />
      <polygon
         fill="none"
         points=" 250 50 238 44 238 56"
         clip-path="url(#clipPath20)"
         id="polygon234" />
    </g>
    <g
       font-size="11"
       stroke-linecap="butt"
       transform="translate(3,96)"
       fill-opacity="1"
       fill="black"
       text-rendering="geometricPrecision"
       font-family="sans-serif"
       stroke-linejoin="round"
       stroke-dasharray="8,3"
       stroke="black"
       stroke-opacity="1"
       stroke-miterlimit="0"
       id="g236">
      <line
         y2="50"
         fill="none"
         x1="250"
         clip-path="url(#clipPath20)"
         x2="50"
         y1="50"
         id="line238" />
      <line
         clip-path="url(#clipPath20)"
         fill="none"
         x1="50"
         x2="62"
         y1="50"
         y2="56"
         stroke-dasharray="none"
         stroke-miterlimit="10"
         id="line240" />
      <line
         clip-path="url(#clipPath20)"
         fill="none"
         x1="50"
         x2="62"
         y1="50"
         y2="44"
         stroke-dasharray="none"
         stroke-miterlimit="10"
         id="line242" />
    </g>
    <g
       font-size="11"
       stroke-linecap="butt"
       transform="translate(-1,33)"
       fill-opacity="1"
       fill="black"
       text-rendering="geometricPrecision"
       font-family="sans-serif"
       stroke-linejoin="round"
       stroke="black"
       stroke-opacity="1"
       id="g244">
      <line
         y2="50"
         fill="none"
         x1="50"
         clip-path="url(#clipPath21)"
         x2="80"
         y1="50"
         id="line246" />
      <line
         y2="70"
         fill="none"
         x1="80"
         clip-path="url(#clipPath21)"
         x2="80"
         y1="50"
         id="line248" />
      <line
         y2="70"
         fill="none"
         x1="80"
         clip-path="url(#clipPath21)"
         x2="54"
         y1="70"
         id="line250" />
      <polygon
         points=" 54 70 66 76 66 64"
         clip-path="url(#clipPath21)"
         stroke="none"
         id="polygon252" />
      <polygon
         fill="none"
         points=" 54 70 66 76 66 64"
         clip-path="url(#clipPath21)"
         id="polygon254" />
    </g>
    <g
       font-size="11"
       stroke-linecap="butt"
       transform="translate(3,123)"
       fill-opacity="1"
       fill="black"
       text-rendering="geometricPrecision"
       font-family="sans-serif"
       stroke-linejoin="round"
       stroke="black"
       stroke-opacity="1"
       id="g256">
      <line
         y2="50"
         fill="none"
         x1="50"
         clip-path="url(#clipPath22)"
         x2="362"
         y1="50"
         id="line258" />
      <polygon
         points=" 362 50 350 44 350 56"
         clip-path="url(#clipPath22)"
         stroke="none"
         id="polygon260" />
      <polygon
         fill="none"
         points=" 362 50 350 44 350 56"
         clip-path="url(#clipPath22)"
         id="polygon262" />
    </g>
    <g
       font-size="11"
       stroke-linecap="butt"
       transform="translate(87,123)"
       fill-opacity="1"
       fill="black"
       text-rendering="geometricPrecision"
       font-family="sans-serif"
       stroke-linejoin="round"
       stroke-dasharray="4"
       stroke="black"
       stroke-opacity="1"
       id="g264">
      <line
         y2="56"
         fill="none"
         x1="50"
         clip-path="url(#clipPath23)"
         x2="50"
         y1="50"
         id="line266" />
    </g>
    <g
       font-size="11"
       stroke-linecap="butt"
       transform="translate(323,146)"
       fill-opacity="1"
       fill="black"
       text-rendering="geometricPrecision"
       font-family="sans-serif"
       stroke-linejoin="round"
       stroke="black"
       stroke-opacity="1"
       id="g268">
      <line
         y2="50"
         fill="none"
         x1="50"
         clip-path="url(#clipPath24)"
         x2="163"
         y1="50"
         id="line270" />
      <line
         y2="44"
         fill="none"
         x1="163"
         clip-path="url(#clipPath24)"
         x2="151"
         y1="50"
         id="line272" />
      <line
         y2="56"
         fill="none"
         x1="163"
         clip-path="url(#clipPath24)"
         x2="151"
         y1="50"
         id="line274" />
    </g>
    <g
       font-size="11"
       stroke-linecap="butt"
       transform="translate(211,75)"
       fill-opacity="1"
       fill="black"
       text-rendering="geometricPrecision"
       font-family="sans-serif"
       stroke-linejoin="round"
       stroke="black"
       stroke-opacity="1"
       id="g276">
      <line
         y2="50"
         fill="none"
         x1="50"
         clip-path="url(#clipPath21)"
         x2="80"
         y1="50"
         id="line278" />
      <line
         y2="70"
         fill="none"
         x1="80"
         clip-path="url(#clipPath21)"
         x2="80"
         y1="50"
         id="line280" />
      <line
         y2="70"
         fill="none"
         x1="80"
         clip-path="url(#clipPath21)"
         x2="50"
         y1="70"
         id="line282" />
      <polygon
         points=" 50 70 62 76 62 64"
         clip-path="url(#clipPath21)"
         stroke="none"
         id="polygon284" />
      <polygon
         fill="none"
         points=" 50 70 62 76 62 64"
         clip-path="url(#clipPath21)"
         id="polygon286" />
    </g>
    <g
       font-size="11"
       transform="translate(260,102)"
       fill-opacity="1"
       fill="black"
       text-rendering="geometricPrecision"
       font-family="sans-serif"
       stroke="black"
       stroke-opacity="1"
       id="g288">
      <text
         x="10"
         xml:space="preserve"
         y="11"
         clip-path="url(#clipPath25)"
         stroke="none"
         id="text290">1.1.1: getValue()</text>
    </g>
    <g
       font-size="11"
       transform="translate(366,177)"
       fill-opacity="1"
       fill="black"
       text-rendering="geometricPrecision"
       font-family="sans-serif"
       stroke="black"
       stroke-opacity="1"
       id="g292">
      <text
         x="10"
         xml:space="preserve"
         y="11"
         clip-path="url(#clipPath26)"
         stroke="none"
         id="text294">1.2.1: write(byte[])</text>
    </g>
    <g
       font-size="11"
       transform="translate(89,157)"
       fill-opacity="1"
       fill="black"
       text-rendering="geometricPrecision"
       font-family="sans-serif"
       stroke="black"
       stroke-opacity="1"
       id="g296">
      <text
         x="9"
         xml:space="preserve"
         y="11"
         clip-path="url(#clipPath27)"
         stroke="none"
         id="text298">1.2: send(cmd)</text>
    </g>
    <g
       font-size="11"
       transform="translate(79,83)"
       fill-opacity="1"
       fill="black"
       text-rendering="geometricPrecision"
       font-family="sans-serif"
       stroke="black"
       stroke-opacity="1"
       id="g300">
      <text
         x="9"
         xml:space="preserve"
         y="11"
         clip-path="url(#clipPath28)"
         stroke="none"
         id="text302">1: checkSensorsStatus()</text>
    </g>
    <g
       font-size="11"
       transform="translate(114,127)"
       fill-opacity="1"
       fill="black"
       text-rendering="geometricPrecision"
       font-family="sans-serif"
       stroke="black"
       stroke-opacity="1"
       id="g304">
      <text
         x="10"
         xml:space="preserve"
         y="11"
         clip-path="url(#clipPath29)"
         stroke="none"
         id="text306">1.1.2: true</text>
    </g>
    <g
       font-size="11"
       transform="translate(91,102)"
       fill-opacity="1"
       fill="black"
       text-rendering="geometricPrecision"
       font-family="sans-serif"
       stroke="black"
       stroke-opacity="1"
       id="g308">
      <text
         x="10"
         xml:space="preserve"
         y="11"
         clip-path="url(#clipPath30)"
         stroke="none"
         id="text310">1.1: hasChanged()</text>
    </g>
    <g
       fill="rgb(120,120,120)"
       text-rendering="geometricPrecision"
       fill-opacity="1"
       font-size="10"
       stroke-opacity="1"
       stroke="rgb(120,120,120)"
       id="g312" />
  </g>
</svg>
